<mxfile host="app.diagrams.net" agent="Mozilla/5.0 (Windows NT 10.0; Win64; x64) AppleWebKit/537.36 (KHTML, like Gecko) Chrome/138.0.0.0 Safari/537.36 Edg/138.0.0.0" version="28.0.7" pages="3">
  <diagram name="Page-1" id="9M1CcUMf5qTGp2dTOIDV">
    <mxGraphModel dx="2223" dy="2694" grid="1" gridSize="10" guides="1" tooltips="1" connect="1" arrows="1" fold="1" page="1" pageScale="1" pageWidth="850" pageHeight="1100" math="0" shadow="0">
      <root>
        <mxCell id="0" />
        <mxCell id="1" parent="0" />
        <mxCell id="NU_M2kYpsmVGyGIH2Jjc-3" value="name" style="ellipse;whiteSpace=wrap;html=1;align=center;" vertex="1" parent="1">
          <mxGeometry x="120" y="360" width="100" height="40" as="geometry" />
        </mxCell>
        <mxCell id="NU_M2kYpsmVGyGIH2Jjc-5" value="passwordHash" style="ellipse;whiteSpace=wrap;html=1;align=center;" vertex="1" parent="1">
          <mxGeometry x="270" y="400" width="100" height="40" as="geometry" />
        </mxCell>
        <mxCell id="NU_M2kYpsmVGyGIH2Jjc-8" value="" style="endArrow=classic;html=1;rounded=0;fontSize=12;startSize=8;endSize=8;curved=1;entryX=0.5;entryY=1;entryDx=0;entryDy=0;" edge="1" parent="1" target="NU_M2kYpsmVGyGIH2Jjc-18">
          <mxGeometry width="50" height="50" relative="1" as="geometry">
            <mxPoint x="160" y="490" as="sourcePoint" />
            <mxPoint x="60.000000000000114" y="320" as="targetPoint" />
          </mxGeometry>
        </mxCell>
        <mxCell id="NU_M2kYpsmVGyGIH2Jjc-9" value="" style="endArrow=classic;html=1;rounded=0;fontSize=12;startSize=8;endSize=8;curved=1;entryX=0.5;entryY=1;entryDx=0;entryDy=0;" edge="1" parent="1" target="NU_M2kYpsmVGyGIH2Jjc-3">
          <mxGeometry width="50" height="50" relative="1" as="geometry">
            <mxPoint x="160" y="490" as="sourcePoint" />
            <mxPoint x="300" y="220" as="targetPoint" />
          </mxGeometry>
        </mxCell>
        <mxCell id="NU_M2kYpsmVGyGIH2Jjc-10" value="Admin" style="whiteSpace=wrap;html=1;align=center;" vertex="1" parent="1">
          <mxGeometry x="110" y="490" width="100" height="40" as="geometry" />
        </mxCell>
        <mxCell id="NU_M2kYpsmVGyGIH2Jjc-11" value="" style="endArrow=classic;html=1;rounded=0;fontSize=12;startSize=8;endSize=8;curved=1;entryX=0.5;entryY=1;entryDx=0;entryDy=0;" edge="1" parent="1" target="NU_M2kYpsmVGyGIH2Jjc-5">
          <mxGeometry width="50" height="50" relative="1" as="geometry">
            <mxPoint x="160" y="490" as="sourcePoint" />
            <mxPoint x="300" y="220" as="targetPoint" />
          </mxGeometry>
        </mxCell>
        <mxCell id="NU_M2kYpsmVGyGIH2Jjc-16" value="email" style="ellipse;whiteSpace=wrap;html=1;align=center;" vertex="1" parent="1">
          <mxGeometry x="220" y="360" width="100" height="40" as="geometry" />
        </mxCell>
        <mxCell id="NU_M2kYpsmVGyGIH2Jjc-17" value="" style="endArrow=classic;html=1;rounded=0;fontSize=12;startSize=8;endSize=8;curved=1;entryX=0.5;entryY=1;entryDx=0;entryDy=0;" edge="1" parent="1" target="NU_M2kYpsmVGyGIH2Jjc-16">
          <mxGeometry width="50" height="50" relative="1" as="geometry">
            <mxPoint x="160" y="490" as="sourcePoint" />
            <mxPoint x="300" y="220" as="targetPoint" />
          </mxGeometry>
        </mxCell>
        <mxCell id="NU_M2kYpsmVGyGIH2Jjc-18" value="adminId" style="ellipse;whiteSpace=wrap;html=1;align=center;fontStyle=4;" vertex="1" parent="1">
          <mxGeometry x="20" y="370" width="100" height="40" as="geometry" />
        </mxCell>
        <mxCell id="NU_M2kYpsmVGyGIH2Jjc-19" style="edgeStyle=none;curved=1;rounded=0;orthogonalLoop=1;jettySize=auto;html=1;exitX=0.5;exitY=1;exitDx=0;exitDy=0;fontSize=12;startSize=8;endSize=8;" edge="1" parent="1" source="NU_M2kYpsmVGyGIH2Jjc-18" target="NU_M2kYpsmVGyGIH2Jjc-18">
          <mxGeometry relative="1" as="geometry" />
        </mxCell>
        <mxCell id="NU_M2kYpsmVGyGIH2Jjc-25" value="" style="endArrow=classic;html=1;rounded=0;fontSize=12;startSize=8;endSize=8;curved=1;exitX=1;exitY=0.5;exitDx=0;exitDy=0;" edge="1" parent="1" source="NU_M2kYpsmVGyGIH2Jjc-10" target="NU_M2kYpsmVGyGIH2Jjc-26">
          <mxGeometry width="50" height="50" relative="1" as="geometry">
            <mxPoint x="290" y="580" as="sourcePoint" />
            <mxPoint x="360" y="510" as="targetPoint" />
          </mxGeometry>
        </mxCell>
        <mxCell id="NU_M2kYpsmVGyGIH2Jjc-26" value="manages" style="shape=rhombus;perimeter=rhombusPerimeter;whiteSpace=wrap;html=1;align=center;" vertex="1" parent="1">
          <mxGeometry x="290" y="480" width="120" height="60" as="geometry" />
        </mxCell>
        <mxCell id="NU_M2kYpsmVGyGIH2Jjc-27" value="" style="endArrow=classic;html=1;rounded=0;fontSize=12;startSize=8;endSize=8;curved=1;exitX=1;exitY=0.5;exitDx=0;exitDy=0;" edge="1" parent="1" source="NU_M2kYpsmVGyGIH2Jjc-26" target="NU_M2kYpsmVGyGIH2Jjc-28">
          <mxGeometry width="50" height="50" relative="1" as="geometry">
            <mxPoint x="560" y="580" as="sourcePoint" />
            <mxPoint x="490" y="510" as="targetPoint" />
          </mxGeometry>
        </mxCell>
        <mxCell id="dwUp4SZN7rPPU4Rl3Qnr-185" style="edgeStyle=none;curved=1;rounded=0;orthogonalLoop=1;jettySize=auto;html=1;exitX=0.5;exitY=0;exitDx=0;exitDy=0;fontSize=12;startSize=8;endSize=8;" edge="1" parent="1" source="NU_M2kYpsmVGyGIH2Jjc-28">
          <mxGeometry relative="1" as="geometry">
            <mxPoint x="489.66666666666674" y="400" as="targetPoint" />
          </mxGeometry>
        </mxCell>
        <mxCell id="NU_M2kYpsmVGyGIH2Jjc-28" value="Merchant" style="whiteSpace=wrap;html=1;align=center;" vertex="1" parent="1">
          <mxGeometry x="440" y="490" width="100" height="40" as="geometry" />
        </mxCell>
        <mxCell id="NU_M2kYpsmVGyGIH2Jjc-29" value="" style="endArrow=classic;html=1;rounded=0;fontSize=12;startSize=8;endSize=8;curved=1;exitX=0.5;exitY=1;exitDx=0;exitDy=0;entryX=0.5;entryY=0;entryDx=0;entryDy=0;" edge="1" parent="1" source="NU_M2kYpsmVGyGIH2Jjc-28" target="NU_M2kYpsmVGyGIH2Jjc-58">
          <mxGeometry width="50" height="50" relative="1" as="geometry">
            <mxPoint x="420" y="580" as="sourcePoint" />
            <mxPoint x="420" y="440" as="targetPoint" />
          </mxGeometry>
        </mxCell>
        <mxCell id="NU_M2kYpsmVGyGIH2Jjc-31" value="" style="endArrow=classic;html=1;rounded=0;fontSize=12;startSize=8;endSize=8;curved=1;exitX=0;exitY=1;exitDx=0;exitDy=0;entryX=0.613;entryY=0.072;entryDx=0;entryDy=0;entryPerimeter=0;" edge="1" parent="1" source="NU_M2kYpsmVGyGIH2Jjc-28" target="NU_M2kYpsmVGyGIH2Jjc-40">
          <mxGeometry width="50" height="50" relative="1" as="geometry">
            <mxPoint x="470" y="488" as="sourcePoint" />
            <mxPoint x="513.2495166172598" y="438.84429380558254" as="targetPoint" />
          </mxGeometry>
        </mxCell>
        <mxCell id="NU_M2kYpsmVGyGIH2Jjc-33" value="" style="endArrow=classic;html=1;rounded=0;fontSize=12;startSize=8;endSize=8;curved=1;exitX=0.75;exitY=0;exitDx=0;exitDy=0;" edge="1" parent="1" source="NU_M2kYpsmVGyGIH2Jjc-28">
          <mxGeometry width="50" height="50" relative="1" as="geometry">
            <mxPoint x="490" y="580" as="sourcePoint" />
            <mxPoint x="580" y="460" as="targetPoint" />
          </mxGeometry>
        </mxCell>
        <mxCell id="NU_M2kYpsmVGyGIH2Jjc-34" value="Email" style="ellipse;whiteSpace=wrap;html=1;align=center;" vertex="1" parent="1">
          <mxGeometry x="570" y="430" width="100" height="40" as="geometry" />
        </mxCell>
        <mxCell id="NU_M2kYpsmVGyGIH2Jjc-35" value="" style="endArrow=classic;html=1;rounded=0;fontSize=12;startSize=8;endSize=8;curved=1;exitX=1;exitY=0.5;exitDx=0;exitDy=0;" edge="1" parent="1" source="NU_M2kYpsmVGyGIH2Jjc-28">
          <mxGeometry width="50" height="50" relative="1" as="geometry">
            <mxPoint x="490" y="580" as="sourcePoint" />
            <mxPoint x="580" y="510" as="targetPoint" />
          </mxGeometry>
        </mxCell>
        <mxCell id="NU_M2kYpsmVGyGIH2Jjc-36" value="Password" style="ellipse;whiteSpace=wrap;html=1;align=center;" vertex="1" parent="1">
          <mxGeometry x="580" y="490" width="100" height="40" as="geometry" />
        </mxCell>
        <mxCell id="NU_M2kYpsmVGyGIH2Jjc-38" value="" style="endArrow=classic;html=1;rounded=0;fontSize=12;startSize=8;endSize=8;curved=1;exitX=0.75;exitY=0;exitDx=0;exitDy=0;" edge="1" parent="1" source="NU_M2kYpsmVGyGIH2Jjc-28">
          <mxGeometry width="50" height="50" relative="1" as="geometry">
            <mxPoint x="490" y="580" as="sourcePoint" />
            <mxPoint x="570" y="400" as="targetPoint" />
          </mxGeometry>
        </mxCell>
        <mxCell id="NU_M2kYpsmVGyGIH2Jjc-39" value="PanNumber" style="ellipse;whiteSpace=wrap;html=1;align=center;" vertex="1" parent="1">
          <mxGeometry x="570" y="360" width="100" height="40" as="geometry" />
        </mxCell>
        <mxCell id="NU_M2kYpsmVGyGIH2Jjc-40" value="MerchantId" style="ellipse;whiteSpace=wrap;html=1;align=center;fontStyle=4;" vertex="1" parent="1">
          <mxGeometry x="275" y="590" width="100" height="40" as="geometry" />
        </mxCell>
        <mxCell id="NU_M2kYpsmVGyGIH2Jjc-41" value="" style="endArrow=classic;html=1;rounded=0;fontSize=12;startSize=8;endSize=8;curved=1;exitX=0.75;exitY=1;exitDx=0;exitDy=0;" edge="1" parent="1" source="NU_M2kYpsmVGyGIH2Jjc-28" target="NU_M2kYpsmVGyGIH2Jjc-42">
          <mxGeometry width="50" height="50" relative="1" as="geometry">
            <mxPoint x="490" y="580" as="sourcePoint" />
            <mxPoint x="530" y="590" as="targetPoint" />
          </mxGeometry>
        </mxCell>
        <mxCell id="NU_M2kYpsmVGyGIH2Jjc-42" value="PhoneNumber" style="ellipse;whiteSpace=wrap;html=1;align=center;" vertex="1" parent="1">
          <mxGeometry x="480" y="590" width="100" height="40" as="geometry" />
        </mxCell>
        <mxCell id="NU_M2kYpsmVGyGIH2Jjc-45" value="Category" style="whiteSpace=wrap;html=1;align=center;" vertex="1" parent="1">
          <mxGeometry x="931.5" y="-40" width="100" height="40" as="geometry" />
        </mxCell>
        <mxCell id="NU_M2kYpsmVGyGIH2Jjc-46" value="" style="endArrow=classic;html=1;rounded=0;fontSize=12;startSize=8;endSize=8;curved=1;exitX=0.07;exitY=-0.042;exitDx=0;exitDy=0;exitPerimeter=0;" edge="1" parent="1" source="NU_M2kYpsmVGyGIH2Jjc-45">
          <mxGeometry width="50" height="50" relative="1" as="geometry">
            <mxPoint x="911.5" y="50" as="sourcePoint" />
            <mxPoint x="911.5" y="-90" as="targetPoint" />
          </mxGeometry>
        </mxCell>
        <mxCell id="NU_M2kYpsmVGyGIH2Jjc-49" value="" style="endArrow=classic;html=1;rounded=0;fontSize=12;startSize=8;endSize=8;curved=1;exitX=0.75;exitY=0;exitDx=0;exitDy=0;" edge="1" parent="1" source="NU_M2kYpsmVGyGIH2Jjc-45">
          <mxGeometry width="50" height="50" relative="1" as="geometry">
            <mxPoint x="981.5" y="50" as="sourcePoint" />
            <mxPoint x="1071.5" y="-70" as="targetPoint" />
          </mxGeometry>
        </mxCell>
        <mxCell id="NU_M2kYpsmVGyGIH2Jjc-50" value="Description" style="ellipse;whiteSpace=wrap;html=1;align=center;" vertex="1" parent="1">
          <mxGeometry x="1061.5" y="-100" width="100" height="40" as="geometry" />
        </mxCell>
        <mxCell id="NU_M2kYpsmVGyGIH2Jjc-51" value="" style="endArrow=classic;html=1;rounded=0;fontSize=12;startSize=8;endSize=8;curved=1;exitX=1;exitY=0.5;exitDx=0;exitDy=0;" edge="1" parent="1" source="NU_M2kYpsmVGyGIH2Jjc-45">
          <mxGeometry width="50" height="50" relative="1" as="geometry">
            <mxPoint x="981.5" y="50" as="sourcePoint" />
            <mxPoint x="1071.5" y="-20" as="targetPoint" />
          </mxGeometry>
        </mxCell>
        <mxCell id="NU_M2kYpsmVGyGIH2Jjc-53" value="" style="endArrow=classic;html=1;rounded=0;fontSize=12;startSize=8;endSize=8;curved=1;exitX=0.923;exitY=1.042;exitDx=0;exitDy=0;exitPerimeter=0;entryX=0.113;entryY=0.374;entryDx=0;entryDy=0;entryPerimeter=0;" edge="1" parent="1" source="NU_M2kYpsmVGyGIH2Jjc-45" target="NU_M2kYpsmVGyGIH2Jjc-61">
          <mxGeometry width="50" height="50" relative="1" as="geometry">
            <mxPoint x="981.5" y="50" as="sourcePoint" />
            <mxPoint x="1061.5" y="30" as="targetPoint" />
          </mxGeometry>
        </mxCell>
        <mxCell id="NU_M2kYpsmVGyGIH2Jjc-55" value="CategoryId" style="ellipse;whiteSpace=wrap;html=1;align=center;fontStyle=4;" vertex="1" parent="1">
          <mxGeometry x="859" y="-130" width="100" height="40" as="geometry" />
        </mxCell>
        <mxCell id="NU_M2kYpsmVGyGIH2Jjc-58" value="MerchantName" style="ellipse;whiteSpace=wrap;html=1;align=center;" vertex="1" parent="1">
          <mxGeometry x="380" y="590" width="100" height="40" as="geometry" />
        </mxCell>
        <mxCell id="NU_M2kYpsmVGyGIH2Jjc-59" value="CategoryName" style="ellipse;whiteSpace=wrap;html=1;align=center;" vertex="1" parent="1">
          <mxGeometry x="972.75" y="-130" width="100" height="40" as="geometry" />
        </mxCell>
        <mxCell id="NU_M2kYpsmVGyGIH2Jjc-60" value="parentId" style="ellipse;whiteSpace=wrap;html=1;align=center;" vertex="1" parent="1">
          <mxGeometry x="1069" y="-40" width="100" height="40" as="geometry" />
        </mxCell>
        <mxCell id="NU_M2kYpsmVGyGIH2Jjc-61" value="parent" style="shape=rhombus;perimeter=rhombusPerimeter;whiteSpace=wrap;html=1;align=center;" vertex="1" parent="1">
          <mxGeometry x="1049" y="10" width="120" height="60" as="geometry" />
        </mxCell>
        <mxCell id="NU_M2kYpsmVGyGIH2Jjc-63" value="" style="endArrow=classic;html=1;rounded=0;fontSize=12;startSize=8;endSize=8;curved=1;exitX=0;exitY=0;exitDx=0;exitDy=0;entryX=1;entryY=0.75;entryDx=0;entryDy=0;" edge="1" parent="1" source="NU_M2kYpsmVGyGIH2Jjc-61" target="NU_M2kYpsmVGyGIH2Jjc-45">
          <mxGeometry width="50" height="50" relative="1" as="geometry">
            <mxPoint x="989" y="-160" as="sourcePoint" />
            <mxPoint x="1039" y="-210" as="targetPoint" />
          </mxGeometry>
        </mxCell>
        <mxCell id="NU_M2kYpsmVGyGIH2Jjc-64" value="1" style="text;strokeColor=none;fillColor=none;spacingLeft=4;spacingRight=4;overflow=hidden;rotatable=0;points=[[0,0.5],[1,0.5]];portConstraint=eastwest;fontSize=12;whiteSpace=wrap;html=1;" vertex="1" parent="1">
          <mxGeometry x="1019" width="20" height="20" as="geometry" />
        </mxCell>
        <mxCell id="NU_M2kYpsmVGyGIH2Jjc-65" value="n" style="text;strokeColor=none;fillColor=none;spacingLeft=4;spacingRight=4;overflow=hidden;rotatable=0;points=[[0,0.5],[1,0.5]];portConstraint=eastwest;fontSize=12;whiteSpace=wrap;html=1;" vertex="1" parent="1">
          <mxGeometry x="1039" y="-20" width="40" height="30" as="geometry" />
        </mxCell>
        <mxCell id="NU_M2kYpsmVGyGIH2Jjc-67" value="Brand" style="whiteSpace=wrap;html=1;align=center;" vertex="1" parent="1">
          <mxGeometry x="709" y="-170" width="100" height="40" as="geometry" />
        </mxCell>
        <mxCell id="NU_M2kYpsmVGyGIH2Jjc-68" value="" style="endArrow=classic;html=1;rounded=0;fontSize=12;startSize=8;endSize=8;curved=1;exitX=0.07;exitY=-0.042;exitDx=0;exitDy=0;exitPerimeter=0;" edge="1" parent="1" source="NU_M2kYpsmVGyGIH2Jjc-67">
          <mxGeometry width="50" height="50" relative="1" as="geometry">
            <mxPoint x="689" y="-80" as="sourcePoint" />
            <mxPoint x="689" y="-220" as="targetPoint" />
          </mxGeometry>
        </mxCell>
        <mxCell id="NU_M2kYpsmVGyGIH2Jjc-69" value="" style="endArrow=classic;html=1;rounded=0;fontSize=12;startSize=8;endSize=8;curved=1;" edge="1" parent="1">
          <mxGeometry width="50" height="50" relative="1" as="geometry">
            <mxPoint x="739" y="-172" as="sourcePoint" />
            <mxPoint x="782.2495166172555" y="-221.15570619441246" as="targetPoint" />
          </mxGeometry>
        </mxCell>
        <mxCell id="NU_M2kYpsmVGyGIH2Jjc-70" value="" style="endArrow=classic;html=1;rounded=0;fontSize=12;startSize=8;endSize=8;curved=1;exitX=0.75;exitY=0;exitDx=0;exitDy=0;" edge="1" parent="1" source="NU_M2kYpsmVGyGIH2Jjc-67">
          <mxGeometry width="50" height="50" relative="1" as="geometry">
            <mxPoint x="759" y="-80" as="sourcePoint" />
            <mxPoint x="849" y="-200" as="targetPoint" />
          </mxGeometry>
        </mxCell>
        <mxCell id="NU_M2kYpsmVGyGIH2Jjc-71" value="Description" style="ellipse;whiteSpace=wrap;html=1;align=center;" vertex="1" parent="1">
          <mxGeometry x="839" y="-230" width="100" height="40" as="geometry" />
        </mxCell>
        <mxCell id="NU_M2kYpsmVGyGIH2Jjc-73" value="BrandId" style="ellipse;whiteSpace=wrap;html=1;align=center;fontStyle=4;" vertex="1" parent="1">
          <mxGeometry x="644" y="-260" width="100" height="40" as="geometry" />
        </mxCell>
        <mxCell id="NU_M2kYpsmVGyGIH2Jjc-74" value="BrandName" style="ellipse;whiteSpace=wrap;html=1;align=center;" vertex="1" parent="1">
          <mxGeometry x="756.5" y="-260" width="100" height="40" as="geometry" />
        </mxCell>
        <mxCell id="dwUp4SZN7rPPU4Rl3Qnr-215" style="edgeStyle=none;curved=1;rounded=0;orthogonalLoop=1;jettySize=auto;html=1;exitX=0.5;exitY=0;exitDx=0;exitDy=0;fontSize=12;startSize=8;endSize=8;" edge="1" parent="1" source="NU_M2kYpsmVGyGIH2Jjc-76" target="NU_M2kYpsmVGyGIH2Jjc-67">
          <mxGeometry relative="1" as="geometry" />
        </mxCell>
        <mxCell id="NU_M2kYpsmVGyGIH2Jjc-76" value="Produces" style="shape=rhombus;perimeter=rhombusPerimeter;whiteSpace=wrap;html=1;align=center;" vertex="1" parent="1">
          <mxGeometry x="700" y="60" width="120" height="60" as="geometry" />
        </mxCell>
        <mxCell id="dwUp4SZN7rPPU4Rl3Qnr-209" value="" style="edgeStyle=none;curved=1;rounded=0;orthogonalLoop=1;jettySize=auto;html=1;fontSize=12;startSize=8;endSize=8;" edge="1" parent="1" source="NU_M2kYpsmVGyGIH2Jjc-77" target="dwUp4SZN7rPPU4Rl3Qnr-208">
          <mxGeometry relative="1" as="geometry" />
        </mxCell>
        <mxCell id="dwUp4SZN7rPPU4Rl3Qnr-213" style="edgeStyle=none;curved=1;rounded=0;orthogonalLoop=1;jettySize=auto;html=1;exitX=0.75;exitY=1;exitDx=0;exitDy=0;entryX=0.5;entryY=0;entryDx=0;entryDy=0;fontSize=12;startSize=8;endSize=8;" edge="1" parent="1" source="NU_M2kYpsmVGyGIH2Jjc-77" target="NU_M2kYpsmVGyGIH2Jjc-92">
          <mxGeometry relative="1" as="geometry" />
        </mxCell>
        <mxCell id="dwUp4SZN7rPPU4Rl3Qnr-214" style="edgeStyle=none;curved=1;rounded=0;orthogonalLoop=1;jettySize=auto;html=1;exitX=0;exitY=0;exitDx=0;exitDy=0;fontSize=12;startSize=8;endSize=8;" edge="1" parent="1" source="NU_M2kYpsmVGyGIH2Jjc-77">
          <mxGeometry relative="1" as="geometry">
            <mxPoint x="820" y="90" as="targetPoint" />
          </mxGeometry>
        </mxCell>
        <mxCell id="NU_M2kYpsmVGyGIH2Jjc-77" value="Product" style="rounded=1;arcSize=10;whiteSpace=wrap;html=1;align=center;" vertex="1" parent="1">
          <mxGeometry x="930" y="220" width="100" height="40" as="geometry" />
        </mxCell>
        <mxCell id="NU_M2kYpsmVGyGIH2Jjc-81" value="" style="endArrow=classic;html=1;rounded=0;fontSize=12;startSize=8;endSize=8;curved=1;exitX=1;exitY=1;exitDx=0;exitDy=0;" edge="1" parent="1" source="NU_M2kYpsmVGyGIH2Jjc-77" target="NU_M2kYpsmVGyGIH2Jjc-79">
          <mxGeometry width="50" height="50" relative="1" as="geometry">
            <mxPoint x="930" y="210" as="sourcePoint" />
            <mxPoint x="890" y="130" as="targetPoint" />
          </mxGeometry>
        </mxCell>
        <mxCell id="NU_M2kYpsmVGyGIH2Jjc-79" value="ProductId" style="ellipse;whiteSpace=wrap;html=1;align=center;fontStyle=4;" vertex="1" parent="1">
          <mxGeometry x="1100" y="331" width="100" height="40" as="geometry" />
        </mxCell>
        <mxCell id="NU_M2kYpsmVGyGIH2Jjc-82" value="ProductName" style="ellipse;whiteSpace=wrap;html=1;align=center;" vertex="1" parent="1">
          <mxGeometry x="719" y="350" width="100" height="40" as="geometry" />
        </mxCell>
        <mxCell id="NU_M2kYpsmVGyGIH2Jjc-83" value="" style="endArrow=classic;html=1;rounded=0;fontSize=12;startSize=8;endSize=8;curved=1;exitX=0;exitY=1;exitDx=0;exitDy=0;" edge="1" parent="1" source="NU_M2kYpsmVGyGIH2Jjc-77" target="NU_M2kYpsmVGyGIH2Jjc-82">
          <mxGeometry width="50" height="50" relative="1" as="geometry">
            <mxPoint x="980" y="280" as="sourcePoint" />
            <mxPoint x="980" y="170" as="targetPoint" />
          </mxGeometry>
        </mxCell>
        <mxCell id="NU_M2kYpsmVGyGIH2Jjc-84" value="Description" style="ellipse;whiteSpace=wrap;html=1;align=center;" vertex="1" parent="1">
          <mxGeometry x="1040" y="140" width="100" height="40" as="geometry" />
        </mxCell>
        <mxCell id="NU_M2kYpsmVGyGIH2Jjc-85" value="" style="endArrow=classic;html=1;rounded=0;fontSize=12;startSize=8;endSize=8;curved=1;exitX=1;exitY=0.25;exitDx=0;exitDy=0;entryX=0;entryY=1;entryDx=0;entryDy=0;" edge="1" parent="1" source="NU_M2kYpsmVGyGIH2Jjc-77" target="NU_M2kYpsmVGyGIH2Jjc-84">
          <mxGeometry width="50" height="50" relative="1" as="geometry">
            <mxPoint x="930" y="220" as="sourcePoint" />
            <mxPoint x="980" y="170" as="targetPoint" />
          </mxGeometry>
        </mxCell>
        <mxCell id="NU_M2kYpsmVGyGIH2Jjc-86" value="Price" style="ellipse;whiteSpace=wrap;html=1;align=center;" vertex="1" parent="1">
          <mxGeometry x="1175" y="140" width="100" height="40" as="geometry" />
        </mxCell>
        <mxCell id="NU_M2kYpsmVGyGIH2Jjc-87" value="" style="endArrow=classic;html=1;rounded=0;fontSize=12;startSize=8;endSize=8;curved=1;exitX=1;exitY=0.5;exitDx=0;exitDy=0;entryX=0;entryY=0.5;entryDx=0;entryDy=0;" edge="1" parent="1" source="NU_M2kYpsmVGyGIH2Jjc-77" target="NU_M2kYpsmVGyGIH2Jjc-86">
          <mxGeometry width="50" height="50" relative="1" as="geometry">
            <mxPoint x="930" y="220" as="sourcePoint" />
            <mxPoint x="980" y="170" as="targetPoint" />
          </mxGeometry>
        </mxCell>
        <mxCell id="NU_M2kYpsmVGyGIH2Jjc-88" value="Stock" style="ellipse;whiteSpace=wrap;html=1;align=center;" vertex="1" parent="1">
          <mxGeometry x="1104" y="250" width="100" height="40" as="geometry" />
        </mxCell>
        <mxCell id="NU_M2kYpsmVGyGIH2Jjc-89" value="" style="endArrow=classic;html=1;rounded=0;fontSize=12;startSize=8;endSize=8;curved=1;exitX=1;exitY=1;exitDx=0;exitDy=0;entryX=0;entryY=0.5;entryDx=0;entryDy=0;" edge="1" parent="1" source="NU_M2kYpsmVGyGIH2Jjc-77" target="NU_M2kYpsmVGyGIH2Jjc-88">
          <mxGeometry width="50" height="50" relative="1" as="geometry">
            <mxPoint x="930" y="220" as="sourcePoint" />
            <mxPoint x="980" y="170" as="targetPoint" />
          </mxGeometry>
        </mxCell>
        <mxCell id="NU_M2kYpsmVGyGIH2Jjc-92" value="&lt;span style=&quot;border-bottom: 1px dotted&quot;&gt;CategoryId&lt;/span&gt;" style="ellipse;whiteSpace=wrap;html=1;align=center;" vertex="1" parent="1">
          <mxGeometry x="1120" y="390" width="100" height="40" as="geometry" />
        </mxCell>
        <mxCell id="NU_M2kYpsmVGyGIH2Jjc-93" value="&lt;span style=&quot;border-bottom: 1px dotted&quot;&gt;BrandId&lt;/span&gt;" style="ellipse;whiteSpace=wrap;html=1;align=center;" vertex="1" parent="1">
          <mxGeometry x="810" y="370" width="100" height="40" as="geometry" />
        </mxCell>
        <mxCell id="NU_M2kYpsmVGyGIH2Jjc-94" value="" style="endArrow=classic;html=1;rounded=0;fontSize=12;startSize=8;endSize=8;curved=1;exitX=0;exitY=1;exitDx=0;exitDy=0;entryX=0.628;entryY=0.089;entryDx=0;entryDy=0;entryPerimeter=0;" edge="1" parent="1" source="NU_M2kYpsmVGyGIH2Jjc-77" target="NU_M2kYpsmVGyGIH2Jjc-93">
          <mxGeometry width="50" height="50" relative="1" as="geometry">
            <mxPoint x="940" y="230" as="sourcePoint" />
            <mxPoint x="990" y="180" as="targetPoint" />
          </mxGeometry>
        </mxCell>
        <mxCell id="NU_M2kYpsmVGyGIH2Jjc-95" value="&lt;span style=&quot;border-bottom: 1px dotted&quot;&gt;MerchantId&lt;/span&gt;" style="ellipse;whiteSpace=wrap;html=1;align=center;" vertex="1" parent="1">
          <mxGeometry x="790" y="300" width="100" height="40" as="geometry" />
        </mxCell>
        <mxCell id="NU_M2kYpsmVGyGIH2Jjc-96" value="" style="endArrow=classic;html=1;rounded=0;fontSize=12;startSize=8;endSize=8;curved=1;exitX=0;exitY=1;exitDx=0;exitDy=0;entryX=1;entryY=0;entryDx=0;entryDy=0;" edge="1" parent="1" source="NU_M2kYpsmVGyGIH2Jjc-77" target="NU_M2kYpsmVGyGIH2Jjc-95">
          <mxGeometry width="50" height="50" relative="1" as="geometry">
            <mxPoint x="940" y="230" as="sourcePoint" />
            <mxPoint x="990" y="180" as="targetPoint" />
          </mxGeometry>
        </mxCell>
        <mxCell id="dwUp4SZN7rPPU4Rl3Qnr-68" value="Reviews" style="whiteSpace=wrap;html=1;align=center;" vertex="1" parent="1">
          <mxGeometry x="1530" y="220" width="100" height="40" as="geometry" />
        </mxCell>
        <mxCell id="dwUp4SZN7rPPU4Rl3Qnr-70" value="comment" style="ellipse;whiteSpace=wrap;html=1;align=center;" vertex="1" parent="1">
          <mxGeometry x="1700" y="230" width="100" height="40" as="geometry" />
        </mxCell>
        <mxCell id="dwUp4SZN7rPPU4Rl3Qnr-72" value="rating" style="ellipse;whiteSpace=wrap;html=1;align=center;" vertex="1" parent="1">
          <mxGeometry x="1720" y="180" width="100" height="40" as="geometry" />
        </mxCell>
        <mxCell id="dwUp4SZN7rPPU4Rl3Qnr-73" value="review_date" style="ellipse;whiteSpace=wrap;html=1;align=center;" vertex="1" parent="1">
          <mxGeometry x="1670" y="280" width="100" height="40" as="geometry" />
        </mxCell>
        <mxCell id="dwUp4SZN7rPPU4Rl3Qnr-74" value="" style="endArrow=classic;html=1;rounded=0;exitX=0.25;exitY=0;exitDx=0;exitDy=0;entryX=0.5;entryY=1;entryDx=0;entryDy=0;" edge="1" parent="1" source="dwUp4SZN7rPPU4Rl3Qnr-68" target="dwUp4SZN7rPPU4Rl3Qnr-80">
          <mxGeometry width="50" height="50" relative="1" as="geometry">
            <mxPoint x="1430" y="240" as="sourcePoint" />
            <mxPoint x="1460" y="190" as="targetPoint" />
          </mxGeometry>
        </mxCell>
        <mxCell id="dwUp4SZN7rPPU4Rl3Qnr-75" value="" style="endArrow=classic;html=1;rounded=0;entryX=0.5;entryY=1;entryDx=0;entryDy=0;exitX=0.5;exitY=0;exitDx=0;exitDy=0;" edge="1" parent="1" source="dwUp4SZN7rPPU4Rl3Qnr-68">
          <mxGeometry width="50" height="50" relative="1" as="geometry">
            <mxPoint x="1890" y="230" as="sourcePoint" />
            <mxPoint x="1580" y="170" as="targetPoint" />
          </mxGeometry>
        </mxCell>
        <mxCell id="dwUp4SZN7rPPU4Rl3Qnr-77" value="" style="endArrow=classic;html=1;rounded=0;exitX=1;exitY=0;exitDx=0;exitDy=0;entryX=0;entryY=0.5;entryDx=0;entryDy=0;" edge="1" parent="1" source="dwUp4SZN7rPPU4Rl3Qnr-68" target="dwUp4SZN7rPPU4Rl3Qnr-72">
          <mxGeometry width="50" height="50" relative="1" as="geometry">
            <mxPoint x="1890" y="230" as="sourcePoint" />
            <mxPoint x="1940" y="180" as="targetPoint" />
          </mxGeometry>
        </mxCell>
        <mxCell id="dwUp4SZN7rPPU4Rl3Qnr-78" value="" style="endArrow=classic;html=1;rounded=0;exitX=1;exitY=0.5;exitDx=0;exitDy=0;entryX=0;entryY=0.5;entryDx=0;entryDy=0;" edge="1" parent="1" source="dwUp4SZN7rPPU4Rl3Qnr-68" target="dwUp4SZN7rPPU4Rl3Qnr-70">
          <mxGeometry width="50" height="50" relative="1" as="geometry">
            <mxPoint x="1890" y="230" as="sourcePoint" />
            <mxPoint x="1940" y="180" as="targetPoint" />
          </mxGeometry>
        </mxCell>
        <mxCell id="dwUp4SZN7rPPU4Rl3Qnr-79" value="" style="endArrow=classic;html=1;rounded=0;exitX=0.75;exitY=1;exitDx=0;exitDy=0;entryX=0;entryY=0.5;entryDx=0;entryDy=0;" edge="1" parent="1" source="dwUp4SZN7rPPU4Rl3Qnr-68" target="dwUp4SZN7rPPU4Rl3Qnr-73">
          <mxGeometry width="50" height="50" relative="1" as="geometry">
            <mxPoint x="1890" y="230" as="sourcePoint" />
            <mxPoint x="1940" y="180" as="targetPoint" />
          </mxGeometry>
        </mxCell>
        <mxCell id="dwUp4SZN7rPPU4Rl3Qnr-80" value="review_id" style="ellipse;whiteSpace=wrap;html=1;align=center;fontStyle=4;" vertex="1" parent="1">
          <mxGeometry x="1420" y="130" width="100" height="40" as="geometry" />
        </mxCell>
        <mxCell id="dwUp4SZN7rPPU4Rl3Qnr-237" style="edgeStyle=none;curved=1;rounded=0;orthogonalLoop=1;jettySize=auto;html=1;entryX=0.5;entryY=1;entryDx=0;entryDy=0;fontSize=12;startSize=8;endSize=8;" edge="1" parent="1" source="dwUp4SZN7rPPU4Rl3Qnr-84" target="dwUp4SZN7rPPU4Rl3Qnr-234">
          <mxGeometry relative="1" as="geometry" />
        </mxCell>
        <mxCell id="dwUp4SZN7rPPU4Rl3Qnr-84" value="Cart" style="whiteSpace=wrap;html=1;align=center;" vertex="1" parent="1">
          <mxGeometry x="949" y="650" width="100" height="40" as="geometry" />
        </mxCell>
        <mxCell id="dwUp4SZN7rPPU4Rl3Qnr-85" value="quantity" style="ellipse;whiteSpace=wrap;html=1;align=center;" vertex="1" parent="1">
          <mxGeometry x="839" y="560" width="100" height="40" as="geometry" />
        </mxCell>
        <mxCell id="dwUp4SZN7rPPU4Rl3Qnr-86" value="user_id" style="ellipse;whiteSpace=wrap;html=1;align=center;" vertex="1" parent="1">
          <mxGeometry x="1049" y="570" width="100" height="40" as="geometry" />
        </mxCell>
        <mxCell id="dwUp4SZN7rPPU4Rl3Qnr-87" value="cart_item_id" style="ellipse;whiteSpace=wrap;html=1;align=center;" vertex="1" parent="1">
          <mxGeometry x="794" y="696" width="100" height="40" as="geometry" />
        </mxCell>
        <mxCell id="dwUp4SZN7rPPU4Rl3Qnr-89" value="" style="endArrow=classic;html=1;rounded=0;entryX=0.5;entryY=1;entryDx=0;entryDy=0;exitX=0.25;exitY=0;exitDx=0;exitDy=0;" edge="1" parent="1" source="dwUp4SZN7rPPU4Rl3Qnr-84" target="dwUp4SZN7rPPU4Rl3Qnr-85">
          <mxGeometry width="50" height="50" relative="1" as="geometry">
            <mxPoint x="849" y="670" as="sourcePoint" />
            <mxPoint x="899" y="620" as="targetPoint" />
          </mxGeometry>
        </mxCell>
        <mxCell id="dwUp4SZN7rPPU4Rl3Qnr-90" value="" style="endArrow=classic;html=1;rounded=0;exitX=0;exitY=1;exitDx=0;exitDy=0;" edge="1" parent="1" source="dwUp4SZN7rPPU4Rl3Qnr-84">
          <mxGeometry width="50" height="50" relative="1" as="geometry">
            <mxPoint x="1309" y="660" as="sourcePoint" />
            <mxPoint x="890" y="716" as="targetPoint" />
          </mxGeometry>
        </mxCell>
        <mxCell id="dwUp4SZN7rPPU4Rl3Qnr-91" value="" style="endArrow=classic;html=1;rounded=0;exitX=0.75;exitY=0;exitDx=0;exitDy=0;entryX=0.5;entryY=1;entryDx=0;entryDy=0;" edge="1" parent="1" source="dwUp4SZN7rPPU4Rl3Qnr-84" target="dwUp4SZN7rPPU4Rl3Qnr-86">
          <mxGeometry width="50" height="50" relative="1" as="geometry">
            <mxPoint x="1309" y="660" as="sourcePoint" />
            <mxPoint x="1359" y="610" as="targetPoint" />
          </mxGeometry>
        </mxCell>
        <mxCell id="dwUp4SZN7rPPU4Rl3Qnr-92" value="" style="endArrow=classic;html=1;rounded=0;exitX=1;exitY=0.5;exitDx=0;exitDy=0;entryX=0;entryY=0.5;entryDx=0;entryDy=0;" edge="1" parent="1" source="dwUp4SZN7rPPU4Rl3Qnr-84" target="dwUp4SZN7rPPU4Rl3Qnr-232">
          <mxGeometry width="50" height="50" relative="1" as="geometry">
            <mxPoint x="1309" y="660" as="sourcePoint" />
            <mxPoint x="1139" y="630" as="targetPoint" />
          </mxGeometry>
        </mxCell>
        <mxCell id="dwUp4SZN7rPPU4Rl3Qnr-221" value="" style="edgeStyle=none;curved=1;rounded=0;orthogonalLoop=1;jettySize=auto;html=1;fontSize=12;startSize=8;endSize=8;" edge="1" parent="1" source="dwUp4SZN7rPPU4Rl3Qnr-127" target="dwUp4SZN7rPPU4Rl3Qnr-219">
          <mxGeometry relative="1" as="geometry" />
        </mxCell>
        <mxCell id="dwUp4SZN7rPPU4Rl3Qnr-231" style="edgeStyle=none;curved=1;rounded=0;orthogonalLoop=1;jettySize=auto;html=1;entryX=0.5;entryY=1;entryDx=0;entryDy=0;fontSize=12;startSize=8;endSize=8;" edge="1" parent="1" source="dwUp4SZN7rPPU4Rl3Qnr-127" target="dwUp4SZN7rPPU4Rl3Qnr-225">
          <mxGeometry relative="1" as="geometry" />
        </mxCell>
        <mxCell id="dwUp4SZN7rPPU4Rl3Qnr-127" value="User" style="whiteSpace=wrap;html=1;align=center;" vertex="1" parent="1">
          <mxGeometry x="959" y="890" width="121" height="40" as="geometry" />
        </mxCell>
        <mxCell id="dwUp4SZN7rPPU4Rl3Qnr-128" value="email" style="ellipse;whiteSpace=wrap;html=1;align=center;" vertex="1" parent="1">
          <mxGeometry x="809" y="780" width="100" height="40" as="geometry" />
        </mxCell>
        <mxCell id="dwUp4SZN7rPPU4Rl3Qnr-129" value="phone" style="ellipse;whiteSpace=wrap;html=1;align=center;" vertex="1" parent="1">
          <mxGeometry x="1100" y="970" width="100" height="40" as="geometry" />
        </mxCell>
        <mxCell id="dwUp4SZN7rPPU4Rl3Qnr-130" value="name" style="ellipse;whiteSpace=wrap;html=1;align=center;" vertex="1" parent="1">
          <mxGeometry x="961.5" y="1030" width="100" height="40" as="geometry" />
        </mxCell>
        <mxCell id="dwUp4SZN7rPPU4Rl3Qnr-131" value="passwordHash" style="ellipse;whiteSpace=wrap;html=1;align=center;" vertex="1" parent="1">
          <mxGeometry x="1100" y="810" width="100" height="40" as="geometry" />
        </mxCell>
        <mxCell id="dwUp4SZN7rPPU4Rl3Qnr-132" value="" style="endArrow=classic;html=1;rounded=0;entryX=0.5;entryY=1;entryDx=0;entryDy=0;exitX=0;exitY=1;exitDx=0;exitDy=0;" edge="1" parent="1" source="dwUp4SZN7rPPU4Rl3Qnr-127" target="dwUp4SZN7rPPU4Rl3Qnr-137">
          <mxGeometry width="50" height="50" relative="1" as="geometry">
            <mxPoint x="960" y="940" as="sourcePoint" />
            <mxPoint x="889" y="860" as="targetPoint" />
          </mxGeometry>
        </mxCell>
        <mxCell id="dwUp4SZN7rPPU4Rl3Qnr-133" value="" style="endArrow=classic;html=1;rounded=0;exitX=0.5;exitY=1;exitDx=0;exitDy=0;" edge="1" parent="1" source="dwUp4SZN7rPPU4Rl3Qnr-127">
          <mxGeometry width="50" height="50" relative="1" as="geometry">
            <mxPoint x="1009" y="940" as="sourcePoint" />
            <mxPoint x="1009" y="1030" as="targetPoint" />
          </mxGeometry>
        </mxCell>
        <mxCell id="dwUp4SZN7rPPU4Rl3Qnr-135" value="" style="endArrow=classic;html=1;rounded=0;exitX=1;exitY=0;exitDx=0;exitDy=0;entryX=0;entryY=0.5;entryDx=0;entryDy=0;" edge="1" parent="1" source="dwUp4SZN7rPPU4Rl3Qnr-127" target="dwUp4SZN7rPPU4Rl3Qnr-131">
          <mxGeometry width="50" height="50" relative="1" as="geometry">
            <mxPoint x="1319" y="900" as="sourcePoint" />
            <mxPoint x="1369" y="850" as="targetPoint" />
          </mxGeometry>
        </mxCell>
        <mxCell id="dwUp4SZN7rPPU4Rl3Qnr-136" value="" style="endArrow=classic;html=1;rounded=0;exitX=1;exitY=0.5;exitDx=0;exitDy=0;entryX=0;entryY=0.5;entryDx=0;entryDy=0;" edge="1" parent="1" source="dwUp4SZN7rPPU4Rl3Qnr-127" target="dwUp4SZN7rPPU4Rl3Qnr-129">
          <mxGeometry width="50" height="50" relative="1" as="geometry">
            <mxPoint x="1319" y="900" as="sourcePoint" />
            <mxPoint x="1369" y="850" as="targetPoint" />
          </mxGeometry>
        </mxCell>
        <mxCell id="dwUp4SZN7rPPU4Rl3Qnr-137" value="user_id" style="ellipse;whiteSpace=wrap;html=1;align=center;fontStyle=4;" vertex="1" parent="1">
          <mxGeometry x="872.75" y="980" width="100" height="40" as="geometry" />
        </mxCell>
        <mxCell id="dwUp4SZN7rPPU4Rl3Qnr-141" value="Address" style="whiteSpace=wrap;html=1;align=center;" vertex="1" parent="1">
          <mxGeometry x="529" y="890" width="100" height="40" as="geometry" />
        </mxCell>
        <mxCell id="dwUp4SZN7rPPU4Rl3Qnr-142" value="state" style="ellipse;whiteSpace=wrap;html=1;align=center;" vertex="1" parent="1">
          <mxGeometry x="420" y="790" width="100" height="40" as="geometry" />
        </mxCell>
        <mxCell id="dwUp4SZN7rPPU4Rl3Qnr-143" value="country" style="ellipse;whiteSpace=wrap;html=1;align=center;" vertex="1" parent="1">
          <mxGeometry x="630" y="800" width="100" height="40" as="geometry" />
        </mxCell>
        <mxCell id="dwUp4SZN7rPPU4Rl3Qnr-144" value="addressType" style="ellipse;whiteSpace=wrap;html=1;align=center;" vertex="1" parent="1">
          <mxGeometry x="330" y="850" width="100" height="40" as="geometry" />
        </mxCell>
        <mxCell id="dwUp4SZN7rPPU4Rl3Qnr-145" value="postalCode" style="ellipse;whiteSpace=wrap;html=1;align=center;" vertex="1" parent="1">
          <mxGeometry x="530" y="790" width="100" height="40" as="geometry" />
        </mxCell>
        <mxCell id="dwUp4SZN7rPPU4Rl3Qnr-146" value="addressId" style="ellipse;whiteSpace=wrap;html=1;align=center;" vertex="1" parent="1">
          <mxGeometry x="570" y="1020" width="100" height="40" as="geometry" />
        </mxCell>
        <mxCell id="dwUp4SZN7rPPU4Rl3Qnr-147" value="street" style="ellipse;whiteSpace=wrap;html=1;align=center;" vertex="1" parent="1">
          <mxGeometry x="329" y="920" width="100" height="40" as="geometry" />
        </mxCell>
        <mxCell id="dwUp4SZN7rPPU4Rl3Qnr-148" value="city" style="ellipse;whiteSpace=wrap;html=1;align=center;" vertex="1" parent="1">
          <mxGeometry x="449" y="990" width="100" height="40" as="geometry" />
        </mxCell>
        <mxCell id="dwUp4SZN7rPPU4Rl3Qnr-149" value="" style="endArrow=classic;html=1;rounded=0;entryX=0.5;entryY=1;entryDx=0;entryDy=0;exitX=0.25;exitY=0;exitDx=0;exitDy=0;" edge="1" parent="1" source="dwUp4SZN7rPPU4Rl3Qnr-141" target="dwUp4SZN7rPPU4Rl3Qnr-142">
          <mxGeometry width="50" height="50" relative="1" as="geometry">
            <mxPoint x="430" y="900" as="sourcePoint" />
            <mxPoint x="480" y="850" as="targetPoint" />
          </mxGeometry>
        </mxCell>
        <mxCell id="dwUp4SZN7rPPU4Rl3Qnr-150" value="" style="endArrow=classic;html=1;rounded=0;entryX=0.5;entryY=1;entryDx=0;entryDy=0;exitX=0.5;exitY=0;exitDx=0;exitDy=0;" edge="1" parent="1" source="dwUp4SZN7rPPU4Rl3Qnr-141" target="dwUp4SZN7rPPU4Rl3Qnr-145">
          <mxGeometry width="50" height="50" relative="1" as="geometry">
            <mxPoint x="890" y="890" as="sourcePoint" />
            <mxPoint x="940" y="840" as="targetPoint" />
          </mxGeometry>
        </mxCell>
        <mxCell id="dwUp4SZN7rPPU4Rl3Qnr-151" value="" style="endArrow=classic;html=1;rounded=0;exitX=0.75;exitY=0;exitDx=0;exitDy=0;entryX=0.5;entryY=1;entryDx=0;entryDy=0;" edge="1" parent="1" source="dwUp4SZN7rPPU4Rl3Qnr-141" target="dwUp4SZN7rPPU4Rl3Qnr-143">
          <mxGeometry width="50" height="50" relative="1" as="geometry">
            <mxPoint x="890" y="890" as="sourcePoint" />
            <mxPoint x="940" y="840" as="targetPoint" />
          </mxGeometry>
        </mxCell>
        <mxCell id="dwUp4SZN7rPPU4Rl3Qnr-152" value="" style="endArrow=classic;html=1;rounded=0;exitX=0.75;exitY=1;exitDx=0;exitDy=0;entryX=0.5;entryY=0;entryDx=0;entryDy=0;" edge="1" parent="1" source="dwUp4SZN7rPPU4Rl3Qnr-141" target="dwUp4SZN7rPPU4Rl3Qnr-146">
          <mxGeometry width="50" height="50" relative="1" as="geometry">
            <mxPoint x="890" y="890" as="sourcePoint" />
            <mxPoint x="940" y="840" as="targetPoint" />
          </mxGeometry>
        </mxCell>
        <mxCell id="dwUp4SZN7rPPU4Rl3Qnr-153" value="" style="endArrow=classic;html=1;rounded=0;entryX=1;entryY=0.5;entryDx=0;entryDy=0;" edge="1" parent="1" target="dwUp4SZN7rPPU4Rl3Qnr-144">
          <mxGeometry width="50" height="50" relative="1" as="geometry">
            <mxPoint x="530" y="890" as="sourcePoint" />
            <mxPoint x="940" y="840" as="targetPoint" />
          </mxGeometry>
        </mxCell>
        <mxCell id="dwUp4SZN7rPPU4Rl3Qnr-154" value="" style="endArrow=classic;html=1;rounded=0;exitX=0;exitY=1;exitDx=0;exitDy=0;entryX=1;entryY=0.5;entryDx=0;entryDy=0;" edge="1" parent="1" source="dwUp4SZN7rPPU4Rl3Qnr-141" target="dwUp4SZN7rPPU4Rl3Qnr-147">
          <mxGeometry width="50" height="50" relative="1" as="geometry">
            <mxPoint x="890" y="890" as="sourcePoint" />
            <mxPoint x="940" y="840" as="targetPoint" />
          </mxGeometry>
        </mxCell>
        <mxCell id="dwUp4SZN7rPPU4Rl3Qnr-155" value="" style="endArrow=classic;html=1;rounded=0;exitX=0.5;exitY=1;exitDx=0;exitDy=0;entryX=0.5;entryY=0;entryDx=0;entryDy=0;" edge="1" parent="1" source="dwUp4SZN7rPPU4Rl3Qnr-141" target="dwUp4SZN7rPPU4Rl3Qnr-148">
          <mxGeometry width="50" height="50" relative="1" as="geometry">
            <mxPoint x="890" y="890" as="sourcePoint" />
            <mxPoint x="940" y="840" as="targetPoint" />
          </mxGeometry>
        </mxCell>
        <mxCell id="dwUp4SZN7rPPU4Rl3Qnr-192" value="" style="edgeStyle=none;curved=1;rounded=0;orthogonalLoop=1;jettySize=auto;html=1;fontSize=12;startSize=8;endSize=8;" edge="1" parent="1" source="dwUp4SZN7rPPU4Rl3Qnr-177" target="dwUp4SZN7rPPU4Rl3Qnr-191">
          <mxGeometry relative="1" as="geometry" />
        </mxCell>
        <mxCell id="dwUp4SZN7rPPU4Rl3Qnr-177" value="BusinessDetails" style="whiteSpace=wrap;html=1;align=center;" vertex="1" parent="1">
          <mxGeometry x="440" y="220" width="100" height="40" as="geometry" />
        </mxCell>
        <mxCell id="dwUp4SZN7rPPU4Rl3Qnr-178" value="businessAddress" style="ellipse;whiteSpace=wrap;html=1;align=center;" vertex="1" parent="1">
          <mxGeometry x="540" y="140" width="100" height="40" as="geometry" />
        </mxCell>
        <mxCell id="dwUp4SZN7rPPU4Rl3Qnr-179" value="gstNumber" style="ellipse;whiteSpace=wrap;html=1;align=center;" vertex="1" parent="1">
          <mxGeometry x="440" y="130" width="100" height="40" as="geometry" />
        </mxCell>
        <mxCell id="dwUp4SZN7rPPU4Rl3Qnr-180" value="" style="endArrow=classic;html=1;rounded=0;exitX=0.25;exitY=0;exitDx=0;exitDy=0;entryX=0.5;entryY=1;entryDx=0;entryDy=0;" edge="1" parent="1" source="dwUp4SZN7rPPU4Rl3Qnr-177">
          <mxGeometry width="50" height="50" relative="1" as="geometry">
            <mxPoint x="340" y="240" as="sourcePoint" />
            <mxPoint x="380" y="170" as="targetPoint" />
          </mxGeometry>
        </mxCell>
        <mxCell id="dwUp4SZN7rPPU4Rl3Qnr-181" value="" style="endArrow=classic;html=1;rounded=0;entryX=0.5;entryY=1;entryDx=0;entryDy=0;exitX=0.5;exitY=0;exitDx=0;exitDy=0;" edge="1" parent="1" source="dwUp4SZN7rPPU4Rl3Qnr-177" target="dwUp4SZN7rPPU4Rl3Qnr-179">
          <mxGeometry width="50" height="50" relative="1" as="geometry">
            <mxPoint x="800" y="230" as="sourcePoint" />
            <mxPoint x="850" y="180" as="targetPoint" />
          </mxGeometry>
        </mxCell>
        <mxCell id="dwUp4SZN7rPPU4Rl3Qnr-182" value="" style="endArrow=classic;html=1;rounded=0;exitX=0.75;exitY=0;exitDx=0;exitDy=0;entryX=0.5;entryY=1;entryDx=0;entryDy=0;" edge="1" parent="1" source="dwUp4SZN7rPPU4Rl3Qnr-177" target="dwUp4SZN7rPPU4Rl3Qnr-178">
          <mxGeometry width="50" height="50" relative="1" as="geometry">
            <mxPoint x="800" y="230" as="sourcePoint" />
            <mxPoint x="850" y="180" as="targetPoint" />
          </mxGeometry>
        </mxCell>
        <mxCell id="dwUp4SZN7rPPU4Rl3Qnr-183" value="businessName" style="ellipse;whiteSpace=wrap;html=1;align=center;fontStyle=4;" vertex="1" parent="1">
          <mxGeometry x="335" y="130" width="100" height="40" as="geometry" />
        </mxCell>
        <mxCell id="dwUp4SZN7rPPU4Rl3Qnr-188" value="" style="edgeStyle=none;curved=1;rounded=0;orthogonalLoop=1;jettySize=auto;html=1;fontSize=12;startSize=8;endSize=8;" edge="1" parent="1" source="dwUp4SZN7rPPU4Rl3Qnr-187" target="dwUp4SZN7rPPU4Rl3Qnr-177">
          <mxGeometry relative="1" as="geometry" />
        </mxCell>
        <mxCell id="dwUp4SZN7rPPU4Rl3Qnr-187" value="belongs" style="shape=rhombus;perimeter=rhombusPerimeter;whiteSpace=wrap;html=1;align=center;" vertex="1" parent="1">
          <mxGeometry x="430" y="340" width="120" height="60" as="geometry" />
        </mxCell>
        <mxCell id="dwUp4SZN7rPPU4Rl3Qnr-189" value="1" style="text;html=1;align=center;verticalAlign=middle;resizable=0;points=[];autosize=1;strokeColor=none;fillColor=none;fontSize=16;" vertex="1" parent="1">
          <mxGeometry x="449" y="435" width="30" height="30" as="geometry" />
        </mxCell>
        <mxCell id="dwUp4SZN7rPPU4Rl3Qnr-190" value="n" style="text;html=1;align=center;verticalAlign=middle;resizable=0;points=[];autosize=1;strokeColor=none;fillColor=none;fontSize=16;" vertex="1" parent="1">
          <mxGeometry x="440" y="301" width="30" height="30" as="geometry" />
        </mxCell>
        <mxCell id="dwUp4SZN7rPPU4Rl3Qnr-193" value="" style="edgeStyle=none;curved=1;rounded=0;orthogonalLoop=1;jettySize=auto;html=1;fontSize=12;startSize=8;endSize=8;" edge="1" parent="1" source="dwUp4SZN7rPPU4Rl3Qnr-191" target="NU_M2kYpsmVGyGIH2Jjc-77">
          <mxGeometry relative="1" as="geometry" />
        </mxCell>
        <mxCell id="dwUp4SZN7rPPU4Rl3Qnr-191" value="has" style="shape=rhombus;perimeter=rhombusPerimeter;whiteSpace=wrap;html=1;align=center;" vertex="1" parent="1">
          <mxGeometry x="670" y="210" width="120" height="60" as="geometry" />
        </mxCell>
        <mxCell id="dwUp4SZN7rPPU4Rl3Qnr-194" value="1" style="text;html=1;align=center;verticalAlign=middle;resizable=0;points=[];autosize=1;strokeColor=none;fillColor=none;fontSize=16;" vertex="1" parent="1">
          <mxGeometry x="599" y="201" width="30" height="30" as="geometry" />
        </mxCell>
        <mxCell id="dwUp4SZN7rPPU4Rl3Qnr-195" value="n" style="text;html=1;align=center;verticalAlign=middle;resizable=0;points=[];autosize=1;strokeColor=none;fillColor=none;fontSize=16;" vertex="1" parent="1">
          <mxGeometry x="829" y="211" width="30" height="30" as="geometry" />
        </mxCell>
        <mxCell id="dwUp4SZN7rPPU4Rl3Qnr-199" style="edgeStyle=none;curved=1;rounded=0;orthogonalLoop=1;jettySize=auto;html=1;exitX=1;exitY=0.5;exitDx=0;exitDy=0;entryX=0;entryY=0.5;entryDx=0;entryDy=0;fontSize=12;startSize=8;endSize=8;" edge="1" parent="1" source="dwUp4SZN7rPPU4Rl3Qnr-196" target="dwUp4SZN7rPPU4Rl3Qnr-68">
          <mxGeometry relative="1" as="geometry" />
        </mxCell>
        <mxCell id="dwUp4SZN7rPPU4Rl3Qnr-196" value="have" style="shape=rhombus;perimeter=rhombusPerimeter;whiteSpace=wrap;html=1;align=center;" vertex="1" parent="1">
          <mxGeometry x="1250" y="211" width="120" height="60" as="geometry" />
        </mxCell>
        <mxCell id="dwUp4SZN7rPPU4Rl3Qnr-198" value="" style="endArrow=classic;html=1;rounded=0;fontSize=12;startSize=8;endSize=8;curved=1;entryX=0;entryY=0.5;entryDx=0;entryDy=0;" edge="1" parent="1" target="dwUp4SZN7rPPU4Rl3Qnr-196">
          <mxGeometry width="50" height="50" relative="1" as="geometry">
            <mxPoint x="1030" y="240" as="sourcePoint" />
            <mxPoint x="1220" y="190" as="targetPoint" />
          </mxGeometry>
        </mxCell>
        <mxCell id="dwUp4SZN7rPPU4Rl3Qnr-200" value="1" style="text;html=1;align=center;verticalAlign=middle;resizable=0;points=[];autosize=1;strokeColor=none;fillColor=none;fontSize=16;" vertex="1" parent="1">
          <mxGeometry x="1139" y="201" width="30" height="30" as="geometry" />
        </mxCell>
        <mxCell id="dwUp4SZN7rPPU4Rl3Qnr-201" value="n" style="text;html=1;align=center;verticalAlign=middle;resizable=0;points=[];autosize=1;strokeColor=none;fillColor=none;fontSize=16;" vertex="1" parent="1">
          <mxGeometry x="1419" y="201" width="30" height="30" as="geometry" />
        </mxCell>
        <mxCell id="dwUp4SZN7rPPU4Rl3Qnr-205" value="" style="endArrow=classic;html=1;rounded=0;fontSize=12;startSize=8;endSize=8;curved=1;entryX=1;entryY=0.5;entryDx=0;entryDy=0;exitX=0;exitY=0.5;exitDx=0;exitDy=0;" edge="1" parent="1" source="dwUp4SZN7rPPU4Rl3Qnr-177">
          <mxGeometry width="50" height="50" relative="1" as="geometry">
            <mxPoint x="150" y="251" as="sourcePoint" />
            <mxPoint x="370" y="240" as="targetPoint" />
          </mxGeometry>
        </mxCell>
        <mxCell id="dwUp4SZN7rPPU4Rl3Qnr-206" value="&lt;span style=&quot;border-bottom: 1px dotted&quot;&gt;MerchantId&lt;/span&gt;" style="ellipse;whiteSpace=wrap;html=1;align=center;" vertex="1" parent="1">
          <mxGeometry x="270" y="220" width="100" height="40" as="geometry" />
        </mxCell>
        <mxCell id="dwUp4SZN7rPPU4Rl3Qnr-210" value="" style="edgeStyle=none;curved=1;rounded=0;orthogonalLoop=1;jettySize=auto;html=1;fontSize=12;startSize=8;endSize=8;" edge="1" parent="1" source="dwUp4SZN7rPPU4Rl3Qnr-208" target="NU_M2kYpsmVGyGIH2Jjc-45">
          <mxGeometry relative="1" as="geometry" />
        </mxCell>
        <mxCell id="dwUp4SZN7rPPU4Rl3Qnr-208" value="has" style="shape=rhombus;perimeter=rhombusPerimeter;whiteSpace=wrap;html=1;align=center;" vertex="1" parent="1">
          <mxGeometry x="920" y="70" width="120" height="60" as="geometry" />
        </mxCell>
        <mxCell id="dwUp4SZN7rPPU4Rl3Qnr-211" value="1" style="text;html=1;align=center;verticalAlign=middle;resizable=0;points=[];autosize=1;strokeColor=none;fillColor=none;fontSize=16;" vertex="1" parent="1">
          <mxGeometry x="939" y="171" width="30" height="30" as="geometry" />
        </mxCell>
        <mxCell id="dwUp4SZN7rPPU4Rl3Qnr-212" value="1" style="text;html=1;align=center;verticalAlign=middle;resizable=0;points=[];autosize=1;strokeColor=none;fillColor=none;fontSize=16;" vertex="1" parent="1">
          <mxGeometry x="939" y="21" width="30" height="30" as="geometry" />
        </mxCell>
        <mxCell id="dwUp4SZN7rPPU4Rl3Qnr-216" value="1" style="text;html=1;align=center;verticalAlign=middle;resizable=0;points=[];autosize=1;strokeColor=none;fillColor=none;fontSize=16;" vertex="1" parent="1">
          <mxGeometry x="849" y="161" width="30" height="30" as="geometry" />
        </mxCell>
        <mxCell id="dwUp4SZN7rPPU4Rl3Qnr-217" value="n" style="text;html=1;align=center;verticalAlign=middle;resizable=0;points=[];autosize=1;strokeColor=none;fillColor=none;fontSize=16;" vertex="1" parent="1">
          <mxGeometry x="719" y="-9" width="30" height="30" as="geometry" />
        </mxCell>
        <mxCell id="dwUp4SZN7rPPU4Rl3Qnr-222" value="" style="edgeStyle=none;curved=1;rounded=0;orthogonalLoop=1;jettySize=auto;html=1;fontSize=12;startSize=8;endSize=8;" edge="1" parent="1" source="dwUp4SZN7rPPU4Rl3Qnr-219" target="dwUp4SZN7rPPU4Rl3Qnr-141">
          <mxGeometry relative="1" as="geometry" />
        </mxCell>
        <mxCell id="dwUp4SZN7rPPU4Rl3Qnr-219" value="have" style="shape=rhombus;perimeter=rhombusPerimeter;whiteSpace=wrap;html=1;align=center;" vertex="1" parent="1">
          <mxGeometry x="729" y="880" width="120" height="60" as="geometry" />
        </mxCell>
        <mxCell id="dwUp4SZN7rPPU4Rl3Qnr-223" value="1" style="text;html=1;align=center;verticalAlign=middle;resizable=0;points=[];autosize=1;strokeColor=none;fillColor=none;fontSize=16;" vertex="1" parent="1">
          <mxGeometry x="869" y="881" width="30" height="30" as="geometry" />
        </mxCell>
        <mxCell id="dwUp4SZN7rPPU4Rl3Qnr-224" value="n" style="text;html=1;align=center;verticalAlign=middle;resizable=0;points=[];autosize=1;strokeColor=none;fillColor=none;fontSize=16;" vertex="1" parent="1">
          <mxGeometry x="659" y="881" width="30" height="30" as="geometry" />
        </mxCell>
        <mxCell id="dwUp4SZN7rPPU4Rl3Qnr-228" style="edgeStyle=none;curved=1;rounded=0;orthogonalLoop=1;jettySize=auto;html=1;exitX=0.5;exitY=0;exitDx=0;exitDy=0;entryX=0.5;entryY=1;entryDx=0;entryDy=0;fontSize=12;startSize=8;endSize=8;" edge="1" parent="1" source="dwUp4SZN7rPPU4Rl3Qnr-225" target="dwUp4SZN7rPPU4Rl3Qnr-84">
          <mxGeometry relative="1" as="geometry" />
        </mxCell>
        <mxCell id="dwUp4SZN7rPPU4Rl3Qnr-225" value="manages" style="shape=rhombus;perimeter=rhombusPerimeter;whiteSpace=wrap;html=1;align=center;" vertex="1" parent="1">
          <mxGeometry x="939" y="760" width="120" height="60" as="geometry" />
        </mxCell>
        <mxCell id="dwUp4SZN7rPPU4Rl3Qnr-229" value="1" style="text;html=1;align=center;verticalAlign=middle;resizable=0;points=[];autosize=1;strokeColor=none;fillColor=none;fontSize=16;" vertex="1" parent="1">
          <mxGeometry x="959" y="841" width="30" height="30" as="geometry" />
        </mxCell>
        <mxCell id="dwUp4SZN7rPPU4Rl3Qnr-230" value="n" style="text;html=1;align=center;verticalAlign=middle;resizable=0;points=[];autosize=1;strokeColor=none;fillColor=none;fontSize=16;" vertex="1" parent="1">
          <mxGeometry x="969" y="701" width="30" height="30" as="geometry" />
        </mxCell>
        <mxCell id="dwUp4SZN7rPPU4Rl3Qnr-232" value="&lt;span style=&quot;border-bottom: 1px dotted&quot;&gt;product_Id&lt;/span&gt;" style="ellipse;whiteSpace=wrap;html=1;align=center;" vertex="1" parent="1">
          <mxGeometry x="1120" y="650" width="100" height="40" as="geometry" />
        </mxCell>
        <mxCell id="dwUp4SZN7rPPU4Rl3Qnr-238" style="edgeStyle=none;curved=1;rounded=0;orthogonalLoop=1;jettySize=auto;html=1;entryX=0.5;entryY=1;entryDx=0;entryDy=0;fontSize=12;startSize=8;endSize=8;" edge="1" parent="1" source="dwUp4SZN7rPPU4Rl3Qnr-234" target="NU_M2kYpsmVGyGIH2Jjc-77">
          <mxGeometry relative="1" as="geometry" />
        </mxCell>
        <mxCell id="dwUp4SZN7rPPU4Rl3Qnr-234" value="manages" style="shape=rhombus;perimeter=rhombusPerimeter;whiteSpace=wrap;html=1;align=center;" vertex="1" parent="1">
          <mxGeometry x="941.5" y="420" width="120" height="60" as="geometry" />
        </mxCell>
        <mxCell id="dwUp4SZN7rPPU4Rl3Qnr-239" value="n" style="text;html=1;align=center;verticalAlign=middle;resizable=0;points=[];autosize=1;strokeColor=none;fillColor=none;fontSize=16;" vertex="1" parent="1">
          <mxGeometry x="969" y="571" width="30" height="30" as="geometry" />
        </mxCell>
        <mxCell id="dwUp4SZN7rPPU4Rl3Qnr-240" value="m" style="text;html=1;align=center;verticalAlign=middle;resizable=0;points=[];autosize=1;strokeColor=none;fillColor=none;fontSize=16;" vertex="1" parent="1">
          <mxGeometry x="954" y="311" width="40" height="30" as="geometry" />
        </mxCell>
        <mxCell id="dwUp4SZN7rPPU4Rl3Qnr-252" value="" style="endArrow=classic;html=1;rounded=0;fontSize=12;startSize=8;endSize=8;curved=1;exitX=0;exitY=0;exitDx=0;exitDy=0;" edge="1" parent="1" source="dwUp4SZN7rPPU4Rl3Qnr-127">
          <mxGeometry width="50" height="50" relative="1" as="geometry">
            <mxPoint x="1320" y="630" as="sourcePoint" />
            <mxPoint x="880" y="820" as="targetPoint" />
          </mxGeometry>
        </mxCell>
        <mxCell id="dwUp4SZN7rPPU4Rl3Qnr-291" value="" style="edgeStyle=none;curved=1;rounded=0;orthogonalLoop=1;jettySize=auto;html=1;fontSize=12;startSize=8;endSize=8;" edge="1" parent="1" source="dwUp4SZN7rPPU4Rl3Qnr-253" target="dwUp4SZN7rPPU4Rl3Qnr-290">
          <mxGeometry relative="1" as="geometry" />
        </mxCell>
        <mxCell id="dwUp4SZN7rPPU4Rl3Qnr-253" value="Orders" style="whiteSpace=wrap;html=1;align=center;" vertex="1" parent="1">
          <mxGeometry x="1650" y="890" width="100" height="40" as="geometry" />
        </mxCell>
        <mxCell id="dwUp4SZN7rPPU4Rl3Qnr-254" value="orderDate" style="ellipse;whiteSpace=wrap;html=1;align=center;" vertex="1" parent="1">
          <mxGeometry x="1510" y="980" width="100" height="40" as="geometry" />
        </mxCell>
        <mxCell id="dwUp4SZN7rPPU4Rl3Qnr-255" value="order_id" style="ellipse;whiteSpace=wrap;html=1;align=center;" vertex="1" parent="1">
          <mxGeometry x="1520" y="820" width="100" height="40" as="geometry" />
        </mxCell>
        <mxCell id="dwUp4SZN7rPPU4Rl3Qnr-256" value="totalAmount" style="ellipse;whiteSpace=wrap;html=1;align=center;" vertex="1" parent="1">
          <mxGeometry x="1810" y="900" width="100" height="40" as="geometry" />
        </mxCell>
        <mxCell id="dwUp4SZN7rPPU4Rl3Qnr-257" value="shippingAddress" style="ellipse;whiteSpace=wrap;html=1;align=center;" vertex="1" parent="1">
          <mxGeometry x="1620" y="1020" width="100" height="40" as="geometry" />
        </mxCell>
        <mxCell id="dwUp4SZN7rPPU4Rl3Qnr-259" value="" style="endArrow=classic;html=1;rounded=0;exitX=0;exitY=1;exitDx=0;exitDy=0;" edge="1" parent="1" source="dwUp4SZN7rPPU4Rl3Qnr-253">
          <mxGeometry width="50" height="50" relative="1" as="geometry">
            <mxPoint x="1540" y="910" as="sourcePoint" />
            <mxPoint x="1590" y="980" as="targetPoint" />
          </mxGeometry>
        </mxCell>
        <mxCell id="dwUp4SZN7rPPU4Rl3Qnr-260" value="" style="endArrow=classic;html=1;rounded=0;entryX=0.5;entryY=0;entryDx=0;entryDy=0;exitX=0.428;exitY=0.996;exitDx=0;exitDy=0;exitPerimeter=0;" edge="1" parent="1" source="dwUp4SZN7rPPU4Rl3Qnr-253" target="dwUp4SZN7rPPU4Rl3Qnr-257">
          <mxGeometry width="50" height="50" relative="1" as="geometry">
            <mxPoint x="1680" y="940" as="sourcePoint" />
            <mxPoint x="2050" y="850" as="targetPoint" />
          </mxGeometry>
        </mxCell>
        <mxCell id="dwUp4SZN7rPPU4Rl3Qnr-261" value="" style="endArrow=classic;html=1;rounded=0;exitX=0;exitY=0;exitDx=0;exitDy=0;entryX=0.5;entryY=1;entryDx=0;entryDy=0;" edge="1" parent="1" source="dwUp4SZN7rPPU4Rl3Qnr-253" target="dwUp4SZN7rPPU4Rl3Qnr-255">
          <mxGeometry width="50" height="50" relative="1" as="geometry">
            <mxPoint x="2000" y="900" as="sourcePoint" />
            <mxPoint x="2050" y="850" as="targetPoint" />
          </mxGeometry>
        </mxCell>
        <mxCell id="dwUp4SZN7rPPU4Rl3Qnr-262" value="" style="endArrow=classic;html=1;rounded=0;exitX=1;exitY=0;exitDx=0;exitDy=0;entryX=0;entryY=0.5;entryDx=0;entryDy=0;" edge="1" parent="1" source="dwUp4SZN7rPPU4Rl3Qnr-253">
          <mxGeometry width="50" height="50" relative="1" as="geometry">
            <mxPoint x="2000" y="900" as="sourcePoint" />
            <mxPoint x="1830" y="870" as="targetPoint" />
          </mxGeometry>
        </mxCell>
        <mxCell id="dwUp4SZN7rPPU4Rl3Qnr-263" value="" style="endArrow=classic;html=1;rounded=0;exitX=1;exitY=0.5;exitDx=0;exitDy=0;entryX=0;entryY=0.5;entryDx=0;entryDy=0;" edge="1" parent="1" source="dwUp4SZN7rPPU4Rl3Qnr-253" target="dwUp4SZN7rPPU4Rl3Qnr-256">
          <mxGeometry width="50" height="50" relative="1" as="geometry">
            <mxPoint x="2000" y="900" as="sourcePoint" />
            <mxPoint x="2050" y="850" as="targetPoint" />
          </mxGeometry>
        </mxCell>
        <mxCell id="dwUp4SZN7rPPU4Rl3Qnr-264" value="" style="endArrow=classic;html=1;rounded=0;fontSize=12;startSize=8;endSize=8;curved=1;exitX=1;exitY=0.5;exitDx=0;exitDy=0;entryX=0;entryY=0.5;entryDx=0;entryDy=0;" edge="1" parent="1" source="dwUp4SZN7rPPU4Rl3Qnr-267" target="dwUp4SZN7rPPU4Rl3Qnr-253">
          <mxGeometry width="50" height="50" relative="1" as="geometry">
            <mxPoint x="1460" y="770" as="sourcePoint" />
            <mxPoint x="1510" y="720" as="targetPoint" />
          </mxGeometry>
        </mxCell>
        <mxCell id="dwUp4SZN7rPPU4Rl3Qnr-266" value="" style="endArrow=classic;html=1;rounded=0;fontSize=12;startSize=8;endSize=8;curved=1;exitX=1;exitY=0.5;exitDx=0;exitDy=0;" edge="1" parent="1" source="dwUp4SZN7rPPU4Rl3Qnr-127">
          <mxGeometry width="50" height="50" relative="1" as="geometry">
            <mxPoint x="1460" y="770" as="sourcePoint" />
            <mxPoint x="1310" y="910" as="targetPoint" />
          </mxGeometry>
        </mxCell>
        <mxCell id="dwUp4SZN7rPPU4Rl3Qnr-267" value="have" style="shape=rhombus;perimeter=rhombusPerimeter;whiteSpace=wrap;html=1;align=center;" vertex="1" parent="1">
          <mxGeometry x="1310" y="881" width="120" height="60" as="geometry" />
        </mxCell>
        <mxCell id="dwUp4SZN7rPPU4Rl3Qnr-268" value="1" style="text;html=1;align=center;verticalAlign=middle;resizable=0;points=[];autosize=1;strokeColor=none;fillColor=none;fontSize=16;" vertex="1" parent="1">
          <mxGeometry x="1269" y="871" width="30" height="30" as="geometry" />
        </mxCell>
        <mxCell id="dwUp4SZN7rPPU4Rl3Qnr-269" value="n" style="text;html=1;align=center;verticalAlign=middle;resizable=0;points=[];autosize=1;strokeColor=none;fillColor=none;fontSize=16;" vertex="1" parent="1">
          <mxGeometry x="1429" y="871" width="30" height="30" as="geometry" />
        </mxCell>
        <mxCell id="dwUp4SZN7rPPU4Rl3Qnr-273" value="&lt;span style=&quot;border-bottom: 1px dotted&quot;&gt;UserId&lt;/span&gt;" style="ellipse;whiteSpace=wrap;html=1;align=center;" vertex="1" parent="1">
          <mxGeometry x="1830" y="850" width="100" height="40" as="geometry" />
        </mxCell>
        <mxCell id="dwUp4SZN7rPPU4Rl3Qnr-274" value="" style="endArrow=classic;html=1;rounded=0;fontSize=12;startSize=8;endSize=8;curved=1;exitX=0.75;exitY=0;exitDx=0;exitDy=0;entryX=0;entryY=1;entryDx=0;entryDy=0;" edge="1" parent="1" source="dwUp4SZN7rPPU4Rl3Qnr-68">
          <mxGeometry width="50" height="50" relative="1" as="geometry">
            <mxPoint x="1680" y="500" as="sourcePoint" />
            <mxPoint x="1644.6446609406585" y="174.14213562373652" as="targetPoint" />
          </mxGeometry>
        </mxCell>
        <mxCell id="dwUp4SZN7rPPU4Rl3Qnr-275" value="&lt;span style=&quot;border-bottom: 1px dotted&quot;&gt;ProductId&lt;/span&gt;" style="ellipse;whiteSpace=wrap;html=1;align=center;" vertex="1" parent="1">
          <mxGeometry x="1640" y="140" width="100" height="40" as="geometry" />
        </mxCell>
        <mxCell id="dwUp4SZN7rPPU4Rl3Qnr-276" value="&lt;span style=&quot;border-bottom: 1px dotted&quot;&gt;UserId&lt;/span&gt;" style="ellipse;whiteSpace=wrap;html=1;align=center;" vertex="1" parent="1">
          <mxGeometry x="1530" y="131" width="100" height="40" as="geometry" />
        </mxCell>
        <mxCell id="dwUp4SZN7rPPU4Rl3Qnr-277" value="order_items" style="whiteSpace=wrap;html=1;align=center;" vertex="1" parent="1">
          <mxGeometry x="1650" y="600" width="100" height="40" as="geometry" />
        </mxCell>
        <mxCell id="dwUp4SZN7rPPU4Rl3Qnr-279" value="&lt;u&gt;Item_id&lt;/u&gt;" style="ellipse;whiteSpace=wrap;html=1;align=center;" vertex="1" parent="1">
          <mxGeometry x="1750" y="520" width="100" height="40" as="geometry" />
        </mxCell>
        <mxCell id="dwUp4SZN7rPPU4Rl3Qnr-284" value="" style="endArrow=classic;html=1;rounded=0;exitX=0.75;exitY=0;exitDx=0;exitDy=0;entryX=0.5;entryY=1;entryDx=0;entryDy=0;" edge="1" parent="1" source="dwUp4SZN7rPPU4Rl3Qnr-277" target="dwUp4SZN7rPPU4Rl3Qnr-279">
          <mxGeometry width="50" height="50" relative="1" as="geometry">
            <mxPoint x="2010" y="610" as="sourcePoint" />
            <mxPoint x="2060" y="560" as="targetPoint" />
          </mxGeometry>
        </mxCell>
        <mxCell id="dwUp4SZN7rPPU4Rl3Qnr-285" value="" style="endArrow=classic;html=1;rounded=0;exitX=1;exitY=0;exitDx=0;exitDy=0;entryX=0;entryY=0.5;entryDx=0;entryDy=0;" edge="1" parent="1" source="dwUp4SZN7rPPU4Rl3Qnr-277">
          <mxGeometry width="50" height="50" relative="1" as="geometry">
            <mxPoint x="2010" y="610" as="sourcePoint" />
            <mxPoint x="1840" y="580" as="targetPoint" />
          </mxGeometry>
        </mxCell>
        <mxCell id="dwUp4SZN7rPPU4Rl3Qnr-287" value="" style="endArrow=classic;html=1;rounded=0;fontSize=12;startSize=8;endSize=8;curved=1;exitX=0;exitY=0;exitDx=0;exitDy=0;" edge="1" parent="1" source="dwUp4SZN7rPPU4Rl3Qnr-277">
          <mxGeometry width="50" height="50" relative="1" as="geometry">
            <mxPoint x="1550" y="590" as="sourcePoint" />
            <mxPoint x="1620" y="560" as="targetPoint" />
          </mxGeometry>
        </mxCell>
        <mxCell id="dwUp4SZN7rPPU4Rl3Qnr-288" value="&lt;span style=&quot;border-bottom: 1px dotted&quot;&gt;ProductId&lt;/span&gt;" style="ellipse;whiteSpace=wrap;html=1;align=center;" vertex="1" parent="1">
          <mxGeometry x="1540" y="520" width="100" height="40" as="geometry" />
        </mxCell>
        <mxCell id="dwUp4SZN7rPPU4Rl3Qnr-289" value="&lt;span style=&quot;border-bottom: 1px dotted&quot;&gt;order_id&lt;/span&gt;" style="ellipse;whiteSpace=wrap;html=1;align=center;" vertex="1" parent="1">
          <mxGeometry x="1840" y="560" width="100" height="40" as="geometry" />
        </mxCell>
        <mxCell id="dwUp4SZN7rPPU4Rl3Qnr-292" value="" style="edgeStyle=none;curved=1;rounded=0;orthogonalLoop=1;jettySize=auto;html=1;fontSize=12;startSize=8;endSize=8;" edge="1" parent="1" source="dwUp4SZN7rPPU4Rl3Qnr-290" target="dwUp4SZN7rPPU4Rl3Qnr-277">
          <mxGeometry relative="1" as="geometry" />
        </mxCell>
        <mxCell id="dwUp4SZN7rPPU4Rl3Qnr-290" value="have" style="shape=rhombus;perimeter=rhombusPerimeter;whiteSpace=wrap;html=1;align=center;" vertex="1" parent="1">
          <mxGeometry x="1640" y="736" width="120" height="60" as="geometry" />
        </mxCell>
        <mxCell id="dwUp4SZN7rPPU4Rl3Qnr-293" value="1" style="text;html=1;align=center;verticalAlign=middle;resizable=0;points=[];autosize=1;strokeColor=none;fillColor=none;fontSize=16;" vertex="1" parent="1">
          <mxGeometry x="1659" y="821" width="30" height="30" as="geometry" />
        </mxCell>
        <mxCell id="dwUp4SZN7rPPU4Rl3Qnr-294" value="n" style="text;html=1;align=center;verticalAlign=middle;resizable=0;points=[];autosize=1;strokeColor=none;fillColor=none;fontSize=16;" vertex="1" parent="1">
          <mxGeometry x="1659" y="681" width="30" height="30" as="geometry" />
        </mxCell>
      </root>
    </mxGraphModel>
  </diagram>
  <diagram id="YczbiGDCWfq3HLZ3WJv5" name="Page-2">
    <mxGraphModel dx="778" dy="558" grid="0" gridSize="10" guides="1" tooltips="1" connect="1" arrows="1" fold="1" page="0" pageScale="1" pageWidth="850" pageHeight="1100" math="0" shadow="0">
      <root>
        <mxCell id="0" />
        <mxCell id="1" parent="0" />
      </root>
    </mxGraphModel>
  </diagram>
  <diagram id="ZqY-Qk9adl_3Ky8J7UtZ" name="Page-3">
    <mxGraphModel dx="778" dy="558" grid="0" gridSize="10" guides="1" tooltips="1" connect="1" arrows="1" fold="1" page="0" pageScale="1" pageWidth="850" pageHeight="1100" math="0" shadow="0">
      <root>
        <mxCell id="0" />
        <mxCell id="1" parent="0" />
      </root>
    </mxGraphModel>
  </diagram>
</mxfile>
